<?xml version="1.0" encoding="UTF-8"?>
<svg width="229px" height="39px" viewBox="0 0 229 39" version="1.1" xmlns="http://www.w3.org/2000/svg" xmlns:xlink="http://www.w3.org/1999/xlink">
    <!-- Generator: Sketch 54.1 (76490) - https://sketchapp.com -->
    <title>iK_Logo_WY</title>
    <desc>Created with Sketch.</desc>
    <g id="Page-1" stroke="none" stroke-width="1" fill="none" fill-rule="evenodd">
        <g id="iK_Logo_WY" fill-rule="nonzero">
            <path d="M45.28,2.01 C47.2487378,0.264258701 50.2112622,0.264258701 52.18,2.01 C53.9642059,3.86763766 53.9642059,6.80236234 52.18,8.66 C50.2112622,10.4057413 47.2487378,10.4057413 45.28,8.66 C43.4957941,6.80236234 43.4957941,3.86763766 45.28,2.01 L45.28,2.01 Z M53.11,34.91 C53.2304872,35.7668467 52.9330097,36.6295315 52.31,37.23 C51.722428,37.6269754 51.0165186,37.8105119 50.31,37.75 L49.17,37.75 C47.8572198,37.8714195 46.5421107,37.5435237 45.44,36.82 C44.617189,35.972689 44.2108984,34.8050611 44.33,33.63 L44.33,15.02 C44.2162018,14.1694005 44.5001877,13.3137547 45.1,12.7 C45.691657,12.3086807 46.3911629,12.112819 47.1,12.14 L48.23,12.14 C49.5459246,12.0186715 50.864161,12.3464683 51.97,13.07 C52.792811,13.917311 53.1991016,15.0849389 53.08,16.26 L53.11,34.91 Z" id="Shape" fill="#FFFFFF"></path>
            <path d="M67.74,24.86 L67.74,34.54 C67.8633875,35.4858638 67.5070922,36.4309837 66.79,37.06 C66.1399965,37.4807244 65.3730402,37.6838452 64.6,37.64 L63.52,37.58 C62.1841766,37.7083077 60.8466128,37.3535162 59.75,36.58 C59.03,35.9133333 58.67,34.7133333 58.67,32.98 L58.67,6.32 C58.5413534,5.39632107 58.8695314,4.46772658 59.55,3.83 C60.1900234,3.4091278 60.9443683,3.19609522 61.71,3.22 L62.85,3.28 C64.1827167,3.15143808 65.5172301,3.50636184 66.61,4.28 C67.33,4.94666667 67.69,6.14666667 67.69,7.88 L67.69,16.68 L77.12,5 C77.7219054,4.1094929 78.7251625,3.57417289 79.8,3.57 C80.0080098,3.55231114 80.217513,3.56920657 80.42,3.62 C81.6768663,3.75373567 82.8544473,4.2985866 83.77,5.17 C84.5476802,5.972615 84.9724939,7.05264983 84.95,8.17 C84.9578447,9.10528554 84.738205,10.0284586 84.31,10.86 C83.7090933,11.9177077 82.9728927,12.8925852 82.12,13.76 L75.68,20.68 L79.8,25.49 L81.19,27.1 L84.69,31.1 C85.0418854,31.4833055 85.3381193,31.9141912 85.57,32.38 C85.7439419,32.7595225 85.8326861,33.1725244 85.83,33.59 C85.8438175,33.9355742 85.7716611,34.2791763 85.62,34.59 C85.3950247,35.2641411 85.0068363,35.8721883 84.49,36.36 C83.5643536,37.2472069 82.3216557,37.726276 81.04,37.69 C79.9571202,37.7228805 78.8887914,37.4340489 77.97,36.86 C76.8240118,36.0175014 75.8124986,35.0059882 74.97,33.86 L67.74,24.86 Z" id="Path" fill="#FFFFFF"></path>
            <path d="M114.22,34.91 C114.339639,35.7913774 114.009128,36.6739905 113.34,37.26 C112.749779,37.6526683 112.047647,37.8422439 111.34,37.8 L110.34,37.75 C109.024075,37.8713285 107.705839,37.5435317 106.6,36.82 C105.777189,35.972689 105.370898,34.8050611 105.49,33.63 L105.49,22.19 C105.49,19.6433333 104.27,18.37 101.83,18.37 C100.622025,18.3497719 99.4307018,18.6536456 98.38,19.25 L98.38,34.91 C98.4996385,35.7913774 98.1691281,36.6739905 97.5,37.26 C96.9091746,37.6513319 96.207497,37.8407849 95.5,37.8 L94.5,37.75 C93.187342,37.8698224 91.8727526,37.5420562 90.77,36.82 C89.947189,35.972689 89.5408984,34.8050611 89.66,33.63 L89.66,6.11 C89.5446636,5.25925656 89.8288687,4.40295027 90.43,3.79 C91.0184197,3.39071575 91.7194935,3.19090971 92.43,3.22 L93.57,3.27 C94.882658,3.15017759 96.1972474,3.47794383 97.3,4.2 C98.1256334,5.0496516 98.5321483,6.22158664 98.41,7.4 L98.41,12.4 C99.1826204,12.1243288 99.9748468,11.9070515 100.78,11.75 C101.661604,11.5665188 102.55951,11.4727078 103.46,11.47 C106.96,11.47 109.626667,12.3366667 111.46,14.07 C113.31,15.81 114.24,18.32 114.24,21.62 L114.22,34.91 Z" id="Path" fill="#FFFFFF"></path>
            <path d="M141.2,34.63 C138.77,36.98 135.49,38.16 131.33,38.16 C127.17,38.16 123.99,36.96 121.59,34.55 C119.19,32.14 117.83,28.97 117.83,24.81 C117.811512,22.9363359 118.150922,21.0763709 118.83,19.33 C119.436067,17.7277664 120.384854,16.2772828 121.61,15.08 C124.250282,12.639101 127.757993,11.357022 131.35,11.52 C133.210817,11.5029183 135.059766,11.8178492 136.81,12.45 C138.426702,13.0268958 139.902552,13.940355 141.14,15.13 C142.360192,16.3274049 143.302404,17.7782739 143.9,19.38 C144.544538,21.1170877 144.866484,22.9572638 144.85,24.81 C144.836667,29.01 143.62,32.2833333 141.2,34.63 Z M128,29.63 C128.761819,30.7373898 130.036752,31.3786286 131.38,31.33 C132.708662,31.3868066 133.96943,30.7412324 134.7,29.63 C135.558282,28.1821281 135.962372,26.51003 135.86,24.83 C135.96534,23.1597571 135.553302,21.4976381 134.68,20.07 C133.891005,19.0127378 132.649211,18.38998 131.33,18.38998 C130.010789,18.38998 128.768995,19.0127378 127.98,20.07 C127.1032,21.496508 126.687651,23.1587049 126.79,24.83 C126.695983,26.5094886 127.118225,28.1775214 128,29.61 L128,29.63 Z" id="Shape" fill="#FFFFFF"></path>
            <path d="M171.41,31.42 C172.099057,32.0033885 172.524341,32.8395384 172.59,33.74 C172.576877,34.081841 172.509363,34.419407 172.39,34.74 C171.827251,36.6529412 169.997034,37.9065145 168.01,37.74 C166.993384,37.7605469 165.991624,37.4936419 165.12,36.97 C164.042601,36.2100858 163.088166,35.2893755 162.29,34.24 L157.19,27.85 L157.19,34.85 C157.310487,35.7068467 157.01301,36.5695315 156.39,37.17 C155.800774,37.5633001 155.096173,37.7464963 154.39,37.69 L153.26,37.69 C151.944197,37.8097405 150.626476,37.4820719 149.52,36.76 C148.700824,35.9109277 148.29827,34.7435226 148.42,33.57 L148.42,6.16 C148.301792,5.29927096 148.594269,4.4329462 149.21,3.82 C149.792188,3.40477277 150.495388,3.19381264 151.21,3.22 L152.34,3.27 C153.655803,3.15025947 154.973524,3.47792805 156.08,4.2 C156.905633,5.0496516 157.312148,6.22158664 157.19,7.4 L157.19,21 L164.71,13.27 C165.324567,12.5305322 166.219846,12.0810808 167.18,12.03 L167.96,12.14 C169.056623,12.3412866 170.073064,12.8512419 170.89,13.61 C171.586713,14.2535524 171.978984,15.1615868 171.97,16.11 C171.989865,16.9044329 171.766567,17.6859763 171.33,18.35 C170.68447,19.2061001 169.931643,19.9757315 169.09,20.64 L167.54,21.98 L164.54,24.56 L171.41,31.42 Z" id="Path" fill="#FFFFFF"></path>
            <path d="M201.05,34.91 C201.169639,35.7913774 200.839128,36.6739905 200.17,37.26 C199.579175,37.6513319 198.877497,37.8407849 198.17,37.8 L197.17,37.75 C195.854197,37.8697405 194.536476,37.5420719 193.43,36.82 C192.610824,35.9709277 192.20827,34.8035226 192.33,33.63 L192.33,22.19 C192.33,19.6433333 191.11,18.37 188.67,18.37 C187.46168,18.3468102 186.269586,18.6508807 185.22,19.25 L185.22,34.91 C185.33417,35.7907558 185.004596,36.6708673 184.34,37.26 C183.748876,37.6506702 183.047422,37.8400627 182.34,37.8 L181.34,37.75 C180.024197,37.8697405 178.706476,37.5420719 177.6,36.82 C176.780824,35.9709277 176.37827,34.8035226 176.5,33.63 L176.5,6.11 C176.378373,5.25868217 176.663483,4.39964961 177.27,3.79 C177.85719,3.38808945 178.559154,3.18802971 179.27,3.22 L180.4,3.27 C181.715803,3.15025947 183.033524,3.47792805 184.14,4.2 C184.965633,5.0496516 185.372148,6.22158664 185.25,7.4 L185.25,12.4 C186.02262,12.1243288 186.814847,11.9070515 187.62,11.75 C188.501519,11.565974 189.39948,11.4721571 190.3,11.47 C193.8,11.47 196.466667,12.3366667 198.3,14.07 C200.16,15.81 201.09,18.32 201.09,21.62 L201.05,34.91 Z" id="Path" fill="#FFFFFF"></path>
            <path d="M225.41,13.92 C227.56549,15.582234 228.759679,18.2027105 228.6,20.92 L228.6,32.46 C228.614333,33.1715642 228.408251,33.8701483 228.01,34.46 C227.491059,35.1329 226.832661,35.6855447 226.08,36.08 C223.88,37.4133333 220.736667,38.08 216.65,38.08 C212.83,38.08 209.89,37.37 207.81,35.94 C205.743025,34.5458663 204.558754,32.1697324 204.69,29.68 C204.564675,27.6376226 205.339274,25.6426654 206.81,24.22 C208.21,22.95 210.4,22.16 213.35,21.85 L220.1,21.13 L220.1,20.77 C220.1,18.91 218.4,17.98 215,17.98 C213.276399,18.0120699 211.563388,18.2572657 209.9,18.71 C209.410459,18.8470962 208.907543,18.9309156 208.4,18.96 C207.755584,18.9837524 207.148201,18.6590508 206.81,18.11 C206.413667,17.4904231 206.214892,16.7650682 206.24,16.03 C206.199237,15.2777946 206.406514,14.5330041 206.83,13.91 C207.374623,13.2919413 208.060857,12.8150084 208.83,12.52 C211.198643,11.7069307 213.697662,11.3407244 216.2,11.44 C220.18,11.4933333 223.25,12.32 225.41,13.92 Z M218.68,31.59 C219.197254,31.5240431 219.696622,31.3575871 220.15,31.1 L220.15,26.98 L216.44,27.29 C214.24,27.43 213.14,28.15 213.14,29.45 C213.14,31 214.31,31.77 216.65,31.77 C217.317295,31.7677488 217.983132,31.7075223 218.64,31.59 L218.68,31.59 Z" id="Shape" fill="#FFFFFF"></path>
            <path d="M30.1353997,0 L4.86460033,2.90021786 C2.18056069,2.90644671 0.00627848105,5.06354038 0,7.72636166 L0,31.2793028 C0.00627848105,33.9421241 2.18056069,36.0992178 4.86460033,36.1054466 L30.1353997,39 C32.8172185,38.9937854 34.9905864,36.8401296 35,34.1795207 L35,4.82614379 C34.9906033,2.16460922 32.8181424,0.00932244844 30.1353997,0 Z M6.70590679,8.64133891 C7.18860291,8.20021974 7.84138964,7.96924814 8.50918675,8.00329522 C9.17795959,7.98654557 9.82508764,8.22989788 10.3016686,8.67735751 C10.7721311,9.13024496 11.0243413,9.74886363 10.998145,10.385668 C11.0112728,11.0474575 10.7714039,11.6912096 10.3232648,12.1968888 C9.89622307,12.7153761 9.23846455,13.0126161 8.54698004,12.9995889 C7.83547489,12.9982985 7.16350015,12.6875621 6.72210392,12.1557247 C6.260674,11.6628274 6.00515419,11.0256443 6.00403136,10.365086 C5.96424875,9.72062989 6.22040726,9.09152612 6.70590679,8.64133891 L6.70590679,8.64133891 Z M10.579868,30.6361533 C10.2199798,31.056478 9.88331012,30.8930184 9.45957075,30.980586 C9.25528064,31.0064713 9.04856808,31.0064713 8.84427797,30.980586 C8.09547826,30.8988562 7.30604601,31.091505 6.73719041,30.4843694 C6.16833482,29.8772339 6.09867903,29.7312878 6.07546044,28.5929086 C6.00580465,25.0902033 6.07546044,20.5483621 6,17.0223055 C6,16.1349535 6.04063254,15.9539804 6.38310683,15.4811152 C6.72558111,15.0082499 7.0448368,15.1133311 7.49179477,15.0199256 C7.69798459,14.9933581 7.90670238,14.9933581 8.1128922,15.0199256 C8.88491051,15.1308446 9.66273346,14.9907364 10.2315891,15.6504126 C10.8004447,16.3100887 10.8875144,16.6019808 10.910733,17.7403601 C10.9978027,21.2430653 10.9397562,25.7206903 10.9978027,29.2175577 C11.0152167,30.1224232 10.9339516,30.2158287 10.579868,30.6361533 L10.579868,30.6361533 Z M30.8437833,30.3047362 C30.7211613,30.6839505 30.4975944,31.0244473 30.1960115,31.2913058 C29.6764705,31.7728789 28.9793614,32.0277455 28.2641611,31.9976 C27.5590644,31.9415449 27.2495098,32.0704716 26.544413,31.4706821 C25.8064255,30.8089333 25.1607488,30.055054 24.6240277,29.2284785 C23.2654267,27.395477 20.8348494,24.8001263 19.2870761,22.8157761 C19.3157386,24.6599886 19.2182862,27.1544401 19.2412161,28.8585149 C19.2412161,29.7441853 19.1666937,29.8899286 18.7596867,30.3047362 C18.3526796,30.7195439 18.0029975,30.6018282 17.5386655,30.6746998 C17.3485561,30.7013763 17.1555256,30.7013763 16.9654162,30.6746998 C16.2029945,30.5121401 15.4176429,30.8708926 14.827196,30.1533875 C14.2367492,29.4358823 14.1851567,29.5928366 14.1220993,28.1241932 C13.8756021,22.5523172 14.0934368,15.4557428 14.0074494,9.79978413 C14.0074494,8.73473741 14.0647744,8.67868232 14.4775139,8.21903057 C14.8902535,7.75937883 15.2399356,7.97799369 15.7157325,7.87148901 C15.9245408,7.85113119 16.1353128,7.86247632 16.3405744,7.90512207 C17.137391,8.07328734 17.9055451,7.90512207 18.507457,8.61702172 C19.1093688,9.32892137 19.1265663,9.73812353 19.1609612,11.0161796 C19.2010887,12.6137497 19.1896237,15.3884766 19.1151013,17.1822395 C21.3278438,14.3122189 23.7469561,10.932097 25.5870866,7.99481021 C26.160336,7.05308469 26.3437758,7.31654362 27.0144775,7.04187367 C27.1240462,6.98604211 27.254591,6.98604211 27.3641596,7.04187367 C28.0750161,7.05411031 28.7611976,7.29882116 29.3132075,7.7369568 C29.8160375,8.13279038 30.1140412,8.72585569 30.1272216,9.35694891 C30.2359443,9.85504086 30.1629325,10.3746346 29.9208518,10.8255923 C29.5303638,11.6522695 29.0600777,12.4406153 28.5163909,13.1799061 C27.3182997,14.9456414 25.5010992,17.8492951 24.0966383,19.7944068 C24.9163849,20.9435361 26.2979158,22.8494092 26.9628851,23.7911347 C27.6278543,24.7328602 27.4902745,24.4918233 28.1093838,25.2934111 C28.7284931,26.0949989 29.703017,27.4178991 30.3335914,28.2194869 C30.5421162,28.4667111 30.7192059,28.7377548 30.8609808,29.0266802 C30.9619202,29.2426442 31.0090691,29.4789295 30.9985606,29.7161578 C31.0023151,29.9206496 30.948791,30.1222497 30.8437833,30.2991307 L30.8437833,30.3047362 Z" id="Shape" fill="#FFCD03"></path>
        </g>
    </g>
</svg>