<?xml version="1.0" encoding="UTF-8"?>
<svg width="314px" height="187px" viewBox="0 0 314 187" version="1.1" xmlns="http://www.w3.org/2000/svg" xmlns:xlink="http://www.w3.org/1999/xlink">
    <!-- Generator: Sketch 54.1 (76490) - https://sketchapp.com -->
    <title>Universal_Contactless_Card_Symbol</title>
    <desc>Created with Sketch.</desc>
    <g id="Page-1" stroke="none" stroke-width="1" fill="none" fill-rule="evenodd">
        <g id="Universal_Contactless_Card_Symbol" fill="#D8D8D8" fill-rule="nonzero">
            <path d="M115.993,185.818 C78.618,182.542 45.638,168.677 24.158,147.212 C11.92,134.982 4.496,121.716 1.14,106.077 C-0.387,98.963 -0.379,87.157 1.158,79.983 C5.816,58.239 19.867,39.218 41.993,24.709 C92.455,-8.382 169.757,-8.216 219.743,25.092 C226.383,29.516 230.67,33.028 236.676,38.959 C244.255,46.444 249.584,53.879 255.207,64.814 C255.415,65.219 256.446,65.73 257.498,65.948 C261.043,66.684 265.768,69.444 269.578,73.001 C272.529,75.757 274.818,78.763 280.453,87.284 C286.135,95.875 311.856,135.593 313.42,138.191 C314.028,139.201 312.826,140.826 311.47,140.826 C310.508,140.826 309.824,140.185 308.405,137.951 C307.4,136.37 300.84,126.188 293.826,115.326 C269.008,76.886 267.658,75.102 260.746,71.645 L257.11,69.826 L246.437,69.826 C235.778,69.826 235.763,69.827 235.504,70.951 C234.087,77.1 233.828,78.606 234.136,78.892 C234.333,79.075 240.39,82.524 247.595,86.557 L260.697,93.89 L259.878,95.608 C259.427,96.553 258.91,97.326 258.728,97.326 C258.546,97.326 247.521,91.222 234.228,83.76 C220.935,76.298 209.282,69.98 208.333,69.718 C204.552,68.674 198.744,72.863 198.744,76.634 C198.744,80.454 199.878,81.568 223.233,100.694 C237.806,112.628 246.141,119.797 247.414,121.491 C249.73,124.573 252.071,129.114 254.231,134.714 C258.028,144.559 264.203,150.052 274.33,152.592 L277.665,153.428 L277.384,155.252 C277.229,156.255 277.015,157.178 276.907,157.301 C276.479,157.793 269.763,155.65 265.876,153.783 C259.799,150.863 255.626,146.703 251.522,139.479 C251.492,139.426 249.111,140.242 246.23,141.292 C241.114,143.158 240.88,143.312 236.047,148.028 C215.449,168.127 185.91,180.97 150.243,185.336 C144.462,186.044 122.151,186.357 115.993,185.818 L115.993,185.818 Z M151.493,179.629 C167.858,177.47 180.547,174.219 193.83,168.781 C207.772,163.073 220.918,154.871 230.117,146.14 L233.742,142.7 L224.617,138.341 C214.868,133.683 213.908,132.911 212.659,128.747 C211.871,126.117 212.763,123.324 215.252,120.623 L217.192,118.518 L212.963,115.306 C209.615,112.763 208.565,111.65 207.921,109.964 C206.879,107.236 207.255,104.285 208.947,101.907 L210.233,100.099 L196.862,97.746 C189.508,96.453 182.653,95.147 181.629,94.844 C179.624,94.252 177.584,91.972 177.056,89.735 C176.772,88.535 183.325,56.54 184.789,51.976 C185.444,49.933 188.245,47.464 190.355,47.069 C192.565,46.655 231.976,53.583 233.938,54.73 C237.044,56.545 238.026,59.463 237.041,63.951 L236.629,65.826 L238.81,65.823 C240.009,65.822 242.849,65.676 245.119,65.499 L249.247,65.177 L247.2,61.377 C241.001,49.868 229.809,38.291 215.991,29.093 C209.544,24.801 195.778,18.021 187.491,15.053 C175.708,10.835 161.447,7.675 147.741,6.246 C140.225,5.463 120.538,5.474 113.241,6.266 C95.752,8.163 79.866,12.122 65.981,18.041 C33.836,31.747 12.222,54.451 6.689,80.327 C5.243,87.09 5.13,98.928 6.453,105.077 C9.379,118.673 15.766,130.442 26.165,141.397 C47.345,163.711 79.696,177.418 118.493,180.518 C123.687,180.933 146.208,180.327 151.493,179.629 Z M144.409,155.278 C142.408,154.699 140.38,152.318 139.954,150.045 C139.676,148.565 140.015,147.538 142.136,143.435 C150.707,126.855 154.432,111.597 154.432,93.077 C154.432,75.179 151.134,61.253 142.941,44.562 C141.182,40.979 139.743,37.652 139.743,37.171 C139.743,35.395 141.229,32.82 142.838,31.81 C145.045,30.425 148.743,30.684 150.513,32.346 C151.193,32.985 152.961,35.887 154.441,38.793 C160.303,50.304 164.32,62.933 166.303,76.078 C167.53,84.213 167.774,99.631 166.794,107.078 C164.985,120.816 161.359,133.074 155.553,145.083 C152.044,152.342 149.841,155.328 147.997,155.328 C147.628,155.328 147.026,155.42 146.66,155.533 C146.292,155.644 145.28,155.53 144.409,155.278 L144.409,155.278 Z M120.552,142.797 C117.483,141.904 115.27,138.139 116.157,135.318 C116.372,134.635 117.817,131.489 119.367,128.327 C125.932,114.939 128.663,100.587 127.325,86.496 C126.225,74.918 124.15,67.616 118.923,56.932 C115.416,49.764 115.253,48.653 117.292,45.767 C119.231,43.023 124.07,42.578 126.612,44.91 C128.374,46.526 133.854,57.97 135.969,64.451 C142.969,85.899 141.901,108.923 132.93,129.993 C128.335,140.786 125.109,144.123 120.552,142.797 Z M95.95,130.14 C94.054,129.285 92.422,127.28 91.978,125.259 C91.707,124.028 92.173,122.666 94.423,118.11 C102.686,101.375 102.775,85.256 94.695,68.91 C91.147,61.731 91.069,60.302 94.07,57.471 C95.551,56.074 96.18,55.827 98.26,55.827 C101.749,55.827 103.558,57.58 106.676,63.984 C111.471,73.834 113.434,82.379 113.418,93.327 C113.401,104.58 111.566,112.305 106.443,122.692 C103.509,128.639 102.059,130.209 99.122,130.612 C98.226,130.735 96.799,130.522 95.95,130.14 L95.95,130.14 Z M72.993,118.35 C71.491,117.728 69.776,115.684 69.266,113.907 C68.697,111.921 69.163,110.345 71.418,106.637 C74.318,101.868 74.993,99.309 74.993,93.076 C74.993,86.844 74.318,84.284 71.418,79.515 C70.435,77.898 69.448,75.961 69.224,75.21 C68.29,72.067 70.909,68.215 74.427,67.555 C77.409,66.995 79.457,68.326 82.199,72.606 C90.138,84.998 90.137,101.552 82.195,113.839 C79.394,118.174 76.27,119.706 72.993,118.35 L72.993,118.35 Z M244.032,137.6 C246.688,136.651 248.984,135.752 249.133,135.603 C249.282,135.454 248.77,133.756 247.994,131.83 C246.402,127.875 246.66,127.977 241.008,129.059 C234.905,130.227 231.362,129.186 224.682,124.267 C222.861,122.926 220.982,121.828 220.508,121.828 C220.033,121.828 218.992,122.527 218.194,123.381 C216.482,125.214 216.224,128.085 217.618,129.783 C218.83,131.259 235.605,139.241 237.597,139.289 C238.48,139.309 241.375,138.55 244.032,137.6 L244.032,137.6 Z M241.392,124.761 C243.879,124.261 244.152,124.09 243.725,123.293 C243.248,122.401 220.046,103.145 218.034,101.969 C216.373,101 215.025,101.225 213.648,102.701 C209.618,107.022 210.088,107.927 220.527,115.931 C233.116,125.584 234.46,126.154 241.392,124.761 Z M210.243,95.606 C210.243,95.485 207.611,93.218 204.395,90.57 C196.448,84.027 194.743,81.585 194.743,76.746 C194.743,72.706 197.438,68.803 201.777,66.559 C203.931,65.445 207.771,65.093 209.944,65.81 C211.481,66.317 218.41,70.066 228.018,75.587 L230.042,76.75 L231.71,68.839 C233.418,60.737 233.449,58.613 231.868,58.12 C231.387,57.97 222.126,56.287 211.287,54.38 C192.041,50.994 189.941,50.792 189.045,52.242 C188.568,53.013 181.246,86.946 181.245,88.389 C181.244,89.111 181.611,90.008 182.061,90.381 C182.51,90.754 188.754,92.111 195.936,93.397 C209.812,95.882 210.243,95.949 210.243,95.606 Z" id="path2828"></path>
        </g>
    </g>
</svg>